# xmcd CD database file
#
# Track frame offsets:
#	150
#	17072
#	33480
#	50645
#	64610
#	81672
#	92892
#	108757
#	122392
#	141158
#	157488
#
# Disc length: 2358 seconds
#
# Revision: 0
# Processed by: cddbd v1.5.1PL2 Copyright (c) Steve Scherf et al.
# Submitted via: CDex 1.51
#
DISCID=9709340b
DTITLE=Catherine Britt - Too Far Gone
DYEAR=2006
DGENRE=Country
TTITLE0=Swingin' Door
TTITLE1=Wrapped
TTITLE2=Too Far Gone
TTITLE3=The Upside Of Being Down
TTITLE4=A New Pair Of Shoes
TTITLE5=Hot Doggin'
TTITLE6=Fallin' Out Of Love With You
TTITLE7=I'm Gone
TTITLE8=I'm Nobody's Fool
TTITLE9=Life's Highway
TTITLE10=Poor Man's Pride
EXTD=YEAR: 2006
EXTT0=
EXTT1=
EXTT2=
EXTT3=
EXTT4=
EXTT5=
EXTT6=
EXTT7=
EXTT8=
EXTT9=
EXTT10=
PLAYORDER=
